PathFileType	4	(X/Y/Z)	c:/Users/goper/Files/vsCode/490R/osim_files/A03/A03_Static02.trc
DataRate	CameraRate	NumFrames	NumMarkers	Units                	OrigDataRate	OrigDataStartFrame	OrigNumFrames
250.00	250.00	10	36	mm	250.0	1949	2227
                Frame#	Time	LPSIS			LASIS			LTH1			LTH2			LTH3			LTH4			LLFE			LMFE			LSH1			LSH2			LSH3			LSH4			LLMAL			LMMAL			LCAL			LMTP5			LTOE			LMTP1			RPSIS			RASIS			RTH1			RTH2			RTH3			RTH4			RLFE			RMFE			RSH1			RSH2			RSH3			RSH4			RLMAL			RMMAL			RCAL			RMTP1			RTOE			RMTP5		
		X1	Y1	Z1	X2	Y2	Z2	X3	Y3	Z3	X4	Y4	Z4	X5	Y5	Z5	X6	Y6	Z6	X7	Y7	Z7	X8	Y8	Z8	X9	Y9	Z9	X10	Y10	Z10	X11	Y11	Z11	X12	Y12	Z12	X13	Y13	Z13	X14	Y14	Z14	X15	Y15	Z15	X16	Y16	Z16	X17	Y17	Z17	X18	Y18	Z18	X19	Y19	Z19	X20	Y20	Z20	X21	Y21	Z21	X22	Y22	Z22	X23	Y23	Z23	X24	Y24	Z24	X25	Y25	Z25	X26	Y26	Z26	X27	Y27	Z27	X28	Y28	Z28	X29	Y29	Z29	X30	Y30	Z30	X31	Y31	Z31	X32	Y32	Z32	X33	Y33	Z33	X34	Y34	Z34	X35	Y35	Z35	X36	Y36	Z36

1949	7.79200	-367.91748	1048.67200	422.04843	-121.71567	988.33978	308.95715	-175.75053	646.25232	231.98837	-163.48775	604.86469	226.87897	-112.68308	654.20685	239.85553	-111.89902	610.46198	236.06706	-166.55397	557.25641	232.09482	-119.81992	527.50439	379.32932	-224.13913	478.28259	233.98241	-230.80717	430.21936	231.01212	-164.06519	462.67642	225.60693	-180.64507	417.61069	228.43488	-286.64651	105.27626	232.18541	-255.15996	105.36966	322.78726	-345.83945	87.40353	298.42627	-147.99135	41.70047	182.76013	-102.19784	67.76352	243.88148	-121.97131	47.47287	294.17865	-373.03632	1054.65796	502.53827	-129.75693	988.76990	613.24304	-210.04204	630.93201	684.83887	-201.92838	586.91632	681.52625	-149.23615	635.61426	689.83185	-147.65669	591.42853	686.20020	-179.68234	544.02844	673.99579	-120.82392	540.27136	563.20667	-237.64824	483.28812	669.91998	-248.22842	444.46335	683.65643	-179.78209	467.11914	685.72589	-199.50800	425.76331	696.53204	-284.64764	129.72816	661.95325	-242.15114	129.67924	586.89850	0.00000	0.00000	0.00000	-121.10535	46.84511	595.54962	-98.77187	69.40620	648.24109	-142.24774	42.21251	712.84247
1950	7.79600	-367.78513	1048.65649	422.10736	-121.60378	988.38263	308.98770	-175.77306	646.27789	232.09822	-163.48372	604.87549	227.00053	-112.67405	654.19513	240.00137	-111.89833	610.46265	236.23027	-166.63187	557.29041	232.24496	-119.89758	527.46735	379.47556	-224.22089	478.31699	234.11720	-230.82858	430.23651	231.11693	-164.09343	462.68570	225.73573	-180.69409	417.61905	228.54359	-286.62653	105.26643	232.17648	-255.16254	105.35040	322.80099	-345.81906	87.39349	298.43451	-148.00468	41.67657	182.79346	-102.18856	67.75034	243.90518	-121.94283	47.45997	294.18289	-372.83395	1054.67603	502.62808	-129.53035	988.77692	613.27136	-209.90846	630.95007	684.86237	-201.80426	586.92932	681.56238	-149.09378	635.60388	689.85370	-147.55643	591.41547	686.23022	-179.59480	544.02496	674.01971	-120.69736	540.27490	563.22876	-237.54007	483.30814	669.96918	-248.09370	444.46198	683.68561	-179.69707	467.11761	685.75232	-199.01414	425.96512	696.64850	-284.61212	129.72414	661.93182	-242.13284	129.67798	586.92865	0.00000	0.00000	0.00000	-121.09384	46.81546	595.54810	-98.75507	69.38947	648.26263	-142.23744	42.18538	712.86908
1951	7.80000	-367.66248	1048.67004	422.20758	-121.44942	988.43823	308.98810	-175.73999	646.28839	232.19807	-163.44571	604.91492	227.12202	-112.64993	654.19342	240.11938	-111.91282	610.43585	236.33479	-166.66762	557.30988	232.37248	-119.93565	527.44971	379.60507	-224.23396	478.32343	234.21883	-230.86951	430.25964	231.23427	-164.09216	462.69577	225.82130	-180.72389	417.64658	228.64032	-286.65759	105.27725	232.20679	-255.17587	105.35273	322.81583	-345.84689	87.39224	298.43613	-147.99884	41.68877	182.80391	-102.20497	67.71993	243.91887	-121.96661	47.42962	294.18845	-372.71393	1054.70496	502.73245	-129.30344	988.78131	613.25757	-209.74463	630.95667	684.90381	-201.64619	586.95374	681.60681	-148.94078	635.58417	689.87177	-147.41696	591.42279	686.26514	-179.46269	544.04108	674.05463	-120.56962	540.27515	563.25323	-237.45166	483.33710	669.98645	-248.01323	444.48300	683.71368	-179.60080	467.10974	685.78357	-199.02650	425.92886	696.64948	-284.55399	129.74428	661.94983	-242.04758	129.70294	586.94049	0.00000	0.00000	0.00000	-121.07632	46.79525	595.56921	-98.73551	69.35989	648.28699	-142.22057	42.18307	712.87732
1952	7.80400	-367.51901	1048.67114	422.27426	-121.35117	988.45081	309.00516	-175.71210	646.33435	232.32121	-163.46997	604.91626	227.24132	-112.65749	654.17804	240.24915	-111.88589	610.45496	236.47020	-166.69066	557.31573	232.48540	-119.98933	527.41772	379.71317	-224.25813	478.33353	234.31448	-230.88904	430.26370	231.32564	-164.12573	462.72046	225.92903	-180.73201	417.65005	228.71005	-286.65228	105.29410	232.20493	-255.17502	105.33752	322.80872	-345.80789	87.39703	298.43088	-147.97935	41.69344	182.79277	-102.19286	67.70632	243.89537	-121.95152	47.43295	294.19568	-372.50592	1054.70288	502.82626	-129.09654	988.81610	613.24963	-209.59650	630.99359	684.93079	-201.48755	586.98608	681.64935	-148.73849	635.61365	689.89838	-147.27472	591.43280	686.30426	-179.30872	544.07654	674.08459	-120.46786	540.25525	563.27686	-237.34561	483.36459	670.02222	-247.92810	444.49475	683.73114	-179.52010	467.12698	685.79419	-198.88045	425.96896	696.70703	-284.56171	129.78326	661.91425	-242.03616	129.72188	586.93884	0.00000	0.00000	0.00000	-121.06272	46.78036	595.55396	-98.72045	69.34634	648.26117	-142.21437	42.18676	712.86481
1953	7.80800	-367.38794	1048.68408	422.36420	-121.25861	988.47327	309.01685	-174.93948	646.78967	231.91382	-163.45580	604.91382	227.34492	-112.64474	654.18561	240.37332	-111.88742	610.43768	236.57635	-166.69060	557.34033	232.58769	-120.02905	527.39551	379.81879	-224.27319	478.34970	234.39124	-230.91100	430.27121	231.39812	-164.15709	462.71548	226.00311	-180.77876	417.65286	228.78456	-286.63693	105.28397	232.21161	-255.16325	105.33868	322.81851	-345.80090	87.37649	298.45966	-147.98383	41.68775	182.78799	-102.24941	67.69759	243.92232	-121.96093	47.43263	294.21536	-372.36911	1054.71802	502.91467	-128.86777	988.83008	613.25586	-209.43434	631.02435	684.97217	-201.32521	587.02014	681.69031	-148.57484	635.63733	689.93524	-147.13589	591.43506	686.31830	-179.16400	544.08392	674.08746	-120.38256	540.23401	563.30994	-237.23419	483.37964	670.02637	-247.80878	444.53223	683.76105	-179.38960	467.14084	685.81000	-198.78787	425.99368	696.73914	-284.52063	129.80237	661.91974	-241.98956	129.73712	586.93445	0.00000	0.00000	0.00000	-121.09261	46.73898	595.55548	-98.71613	69.33532	648.26520	-142.22511	42.18042	712.86157
1954	7.81200	-367.23447	1048.67273	422.45087	-121.15787	988.51160	309.03333	-175.61749	646.35107	232.48660	-163.41840	604.91949	227.45107	-112.59367	654.19458	240.46552	-111.88296	610.42932	236.67987	-166.69704	557.34180	232.67770	-120.03889	527.40210	379.88831	-224.29509	478.36255	234.47690	-230.93050	430.28094	231.45807	-164.14157	462.73514	226.07233	-180.77806	417.68240	228.84209	-286.64789	105.30899	232.21211	-255.16373	105.33652	322.83438	-345.82651	87.37470	298.44275	-147.99570	41.70966	182.77754	-102.25379	67.67752	243.92172	-121.97093	47.44270	294.19351	-372.19858	1054.71814	503.02869	-128.64688	988.86951	613.25299	-209.21959	631.01917	685.00220	-201.16487	587.06000	681.74725	-148.42790	635.63715	689.91498	-146.95947	591.44043	686.34381	-179.04692	544.09912	674.08948	-120.29411	540.21460	563.31061	-237.12054	483.40863	670.04730	-247.73915	444.55511	683.77472	-179.30733	467.15891	685.84106	-199.11412	425.79056	696.61578	-284.50314	129.85417	661.92847	-241.95787	129.75894	586.91711	0.00000	0.00000	0.00000	-121.04577	46.76671	595.55756	-98.72201	69.31274	648.24841	-142.22937	42.17021	712.85266
1955	7.81600	-367.12589	1048.68628	422.54620	-121.05072	988.53058	309.04269	-175.59634	646.34668	232.54337	-163.37065	604.93341	227.52971	-112.56753	654.17969	240.57812	-111.85064	610.44586	236.79114	-166.68964	557.34222	232.76392	-120.04319	527.39307	379.97928	-224.27905	478.35580	234.53882	-230.91872	430.28540	231.52994	-164.15387	462.76300	226.14771	-180.78705	417.68884	228.92294	-286.65811	105.31348	232.23372	-255.18129	105.34888	322.82834	-345.81396	87.38611	298.44992	-147.98260	41.70927	182.78059	-102.22120	67.73725	243.89679	-121.97025	47.41306	294.19144	-372.02896	1054.72778	503.13153	-128.43665	988.90302	613.24396	-209.04770	631.08160	685.04163	-200.98335	587.07751	681.76538	-148.24673	635.66571	689.94464	-146.81177	591.45123	686.35236	-178.89825	544.11292	674.11011	-120.12485	540.24768	563.32092	-236.97772	483.42990	670.05841	-247.60197	444.63101	683.79590	-179.20427	467.17447	685.87274	-198.97029	425.82935	696.62299	-284.47601	129.87807	661.91925	-241.95505	129.78645	586.90454	0.00000	0.00000	0.00000	-121.05442	46.76611	595.54517	-98.71182	69.30991	648.24756	-142.21819	42.19326	712.85437
1956	7.82000	-366.99597	1048.67444	422.61490	-120.96436	988.54596	309.03918	-175.53394	646.35370	232.60759	-163.33284	604.92883	227.59528	-112.54289	654.19666	240.64549	-111.81126	610.44427	236.86211	-166.68655	557.34711	232.82155	-120.03677	527.37836	380.05768	-224.25883	478.35251	234.59599	-230.93173	430.30441	231.58781	-164.16032	462.77414	226.18536	-180.77139	417.68576	228.94406	-286.65448	105.30213	232.22746	-255.17769	105.37163	322.83249	-345.82642	87.39805	298.44739	-147.98956	41.72624	182.78766	-102.18960	67.80711	243.94431	-121.96219	47.46766	294.18976	-371.83902	1054.73059	503.22305	-128.27692	988.90375	613.21729	-208.86157	631.10724	685.09137	-200.81226	587.10492	681.80621	-148.06883	635.67670	689.96362	-146.62085	591.47510	686.36798	-178.74776	544.12585	674.13379	-120.01916	540.22772	563.30475	-236.88487	483.46912	670.10138	-247.54178	444.63696	683.82074	-179.09955	467.17532	685.88019	-198.89325	425.84000	696.63367	-284.47125	129.91234	661.90729	-241.92094	129.81755	586.92120	0.00000	0.00000	0.00000	-121.07061	46.76312	595.52313	-98.71776	69.31081	648.24591	-142.23451	42.21362	712.85413
1957	7.82400	-366.89636	1048.68030	422.72845	-120.91350	988.56964	309.05988	-175.45210	646.35107	232.64812	-163.28412	604.92926	227.66620	-112.47008	654.18329	240.70969	-111.76520	610.43976	236.93114	-166.65146	557.37665	232.87495	-120.01358	527.41174	380.10339	-224.22708	478.36511	234.63873	-230.91939	430.30679	231.62459	-164.14861	462.78717	226.25188	-180.74940	417.71292	228.98973	-286.64423	105.31811	232.23340	-255.19292	105.38496	322.82202	-345.82971	87.41361	298.46713	-148.01472	41.74205	182.78162	-102.18052	67.81898	243.91666	-121.96664	47.46024	294.19458	-371.65430	1054.73120	503.36392	-128.01982	988.94525	613.19891	-208.65851	631.15863	685.12543	-200.61873	587.13922	681.83228	-147.86855	635.66846	689.97437	-146.40887	591.48022	686.37610	-178.59727	544.14062	674.15936	-119.91336	540.23962	563.33960	-236.75610	483.50217	670.11298	-247.39183	444.66559	683.83685	-178.94814	467.19009	685.89642	-198.76288	425.84622	696.66064	-284.44498	129.96590	661.90790	-241.90631	129.81566	586.90710	0.00000	0.00000	0.00000	-121.04282	46.77821	595.50848	-98.71621	69.30683	648.23114	-142.21045	42.22266	712.81958
1958	7.82800	-366.78726	1048.69629	422.84549	-120.79070	988.59320	309.04352	-175.38356	646.35992	232.70332	-163.21562	604.95367	227.70618	-112.38585	654.17670	240.76427	-111.70308	610.46021	236.98228	-166.62622	557.37585	232.92017	-119.96794	527.40723	380.14377	-224.19444	478.39154	234.66046	-230.86024	430.31296	231.65558	-164.13162	462.79306	226.28687	-180.70308	417.70801	229.04034	-286.63751	105.33379	232.25574	-255.16483	105.37955	322.83319	-345.82495	87.41682	298.46936	-147.98662	41.74379	182.78627	-102.17644	67.78790	243.92380	-121.96487	47.45097	294.18457	-371.46521	1054.74438	503.46854	-127.78635	988.96698	613.19775	-208.42343	631.15747	685.19299	-200.40997	587.13654	681.87286	-147.65424	635.67920	690.00195	-146.22438	591.46051	686.39075	-178.44292	544.12317	674.17407	-119.78933	540.21344	563.34863	-236.61365	483.51819	670.15088	-247.24881	444.68179	683.85797	-178.80818	467.18863	685.93890	-198.63951	425.85013	696.69305	-284.42047	130.00983	661.89526	-241.88046	129.87080	586.89978	0.00000	0.00000	0.00000	-121.01968	46.78984	595.49237	-98.67573	69.30015	648.22186	-142.20616	42.22351	712.82837
